<?xml version="1.0" encoding="UTF-8"?>
<svg xmlns="http://www.w3.org/2000/svg" xmlns:xlink="http://www.w3.org/1999/xlink" width="150px" height="150px" viewBox="0 0 150 150" version="1.1">
<g id="surface1">
<path style="fill-rule:nonzero;fill:rgb(0%,80.000001%,5.490196%);fill-opacity:1;stroke-width:0.00024;stroke-linecap:butt;stroke-linejoin:miter;stroke:rgb(18.039216%,100%,12.156863%);stroke-opacity:1;stroke-miterlimit:4;" d="M 21 15 L 21 18.93 C 21.00625 19.515 20.75625 20.073125 20.315625 20.4575 C 19.875 20.841875 19.28875 21.015 18.71 20.93 C 10.558125 19.8825 4.150625 13.446875 3.14 5.29 C 3.055625 4.713125 3.226875 4.128125 3.609375 3.688125 C 3.991875 3.248125 4.546875 2.996875 5.13 3 L 9 3 C 9.511875 2.996875 9.94375 3.38125 10 3.89 C 10.099375 5.200625 10.438125 6.481875 11 7.67 C 11.199375 8.135625 11.01875 8.676875 10.58 8.93 L 9.72 9.42 C 9.469375 9.558125 9.289375 9.796875 9.22625 10.075625 C 9.163125 10.355 9.223125 10.6475 9.39 10.88 C 10.379375 12.329375 11.630625 13.580625 13.08 14.57 C 13.3125 14.736875 13.605 14.796875 13.884375 14.73375 C 14.163125 14.670625 14.401875 14.490625 14.54 14.24 L 15.03 13.38 C 15.29875 12.934375 15.86375 12.769375 16.33 13 C 17.518125 13.561875 18.799375 13.900625 20.11 14 C 20.61875 14.05625 21.003125 14.488125 21 15 Z M 21 15 " transform="matrix(6.25,0,0,6.25,0,0)"/>
<path style="fill:none;stroke-width:0.00024;stroke-linecap:round;stroke-linejoin:round;stroke:rgb(0%,80.000001%,5.490196%);stroke-opacity:1;stroke-miterlimit:4;" d="M 21 15 L 21 18.93 C 21.00625 19.515 20.75625 20.073125 20.315625 20.4575 C 19.875 20.841875 19.28875 21.015 18.71 20.93 C 10.558125 19.8825 4.150625 13.446875 3.14 5.29 C 3.055625 4.713125 3.226875 4.128125 3.609375 3.688125 C 3.991875 3.248125 4.546875 2.996875 5.13 3 L 9 3 C 9.511875 2.996875 9.94375 3.38125 10 3.89 C 10.099375 5.200625 10.438125 6.481875 11 7.67 C 11.199375 8.135625 11.01875 8.676875 10.58 8.93 L 9.72 9.42 C 9.469375 9.558125 9.289375 9.796875 9.22625 10.075625 C 9.163125 10.355 9.223125 10.6475 9.39 10.88 C 10.379375 12.329375 11.630625 13.580625 13.08 14.57 C 13.3125 14.736875 13.605 14.796875 13.884375 14.73375 C 14.163125 14.670625 14.401875 14.490625 14.54 14.24 L 15.03 13.38 C 15.29875 12.934375 15.86375 12.769375 16.33 13 C 17.518125 13.561875 18.799375 13.900625 20.11 14 C 20.61875 14.05625 21.003125 14.488125 21 15 Z M 21 15 " transform="matrix(6.25,0,0,6.25,0,0)"/>
</g>
</svg>
